<svg height="512" viewBox="0 0 64 64" width="512" xmlns="http://www.w3.org/2000/svg"><g id="Layer_14" data-name="Layer 14"><path d="m54 49h2v13h-2z" fill="#8b5e3c"/><path d="m15 4h30v58h-30z" fill="#57a4ff"/><path d="m15 18v44h-12v-38z" fill="#ffcd00"/><path d="m7 35h4v4h-4z" fill="#f1f2f2"/><path d="m7 43h4v4h-4z" fill="#f1f2f2"/><path d="m7 27h4v4h-4z" fill="#f1f2f2"/><path d="m41 47v-4h-22v4h2 18z" fill="#808285"/><path d="m21 50h18v3h-18z" fill="#bcbec0"/><path d="m21 47h18v3h-18z" fill="#d1d3d4"/><path d="m21 53h18v3h-18z" fill="#d1d3d4"/><path d="m21 56h18v3h-18z" fill="#bcbec0"/><path d="m21 59v3h14 4v-3z" fill="#d1d3d4"/><g fill="#f1f2f2"><path d="m36 27h4v4h-4z"/><path d="m28 27h4v4h-4z"/><path d="m20 27h4v4h-4z"/><path d="m36 35h4v4h-4z"/><path d="m28 35h4v4h-4z"/><path d="m20 35h4v4h-4z"/><path d="m28 19h4v4h-4z"/><path d="m36 19h4v4h-4z"/><path d="m20 19h4v4h-4z"/><path d="m28 11h4v4h-4z"/><path d="m36 11h4v4h-4z"/><path d="m20 11h4v4h-4z"/></g><path d="m61 45a5.988 5.988 0 0 0 -3.1-5.25 4 4 0 1 0 -5.8 0 6 6 0 1 0 8.9 5.25z" fill="#7ed63e"/><path d="m57.9 39.75a3.977 3.977 0 0 0 -3.9-6.609 3.984 3.984 0 0 1 1.9 6.609 5.994 5.994 0 0 1 -1.9 11.16 6 6 0 0 0 3.9-11.16z" fill="#5eac24"/><path d="m7 54h4v8h-4z" fill="#ff5023"/><path d="m45 60h17v2h-17z" fill="#6d6e71"/></g></svg>